  <svg width="373" height="295" viewBox="0 0 373 295" fill="current" xmlns="http://www.w3.org/2000/svg" xmlns:xlink= "http://www.w3.org/1999/xlink">
    <path
      d="M74.6527 132.355H1.72714C0.958433 132.355 0.477173 133.186 0.859888 133.853L92.9617 294.288C93.14 294.599 93.4708 294.79 93.829 294.79H170.908C171.251 294.79 171.571 294.614 171.754 294.323L222.261 214.105C222.466 213.78 222.466 213.365 222.261 213.04L171.839 132.957C171.612 132.596 171.638 132.132 171.904 131.799L182.604 118.424C183.037 117.884 183.874 117.935 184.237 118.525L230.783 194.163C231.171 194.792 232.082 194.799 232.479 194.176L273.376 129.909C273.593 129.569 273.583 129.131 273.352 128.8L184.302 1.16174C183.907 0.595164 183.07 0.590524 182.669 1.15268L93.6414 125.791C93.4048 126.122 93.3926 126.564 93.6107 126.907L171.077 249.067C171.306 249.427 171.281 249.893 171.014 250.227L160.301 263.618C159.873 264.153 159.045 264.108 158.677 263.53L75.4963 132.818C75.3128 132.53 74.9946 132.355 74.6527 132.355Z"
      fill="current"
    />
    <path
      d="M291.49 132.833L193.446 293.269C193.039 293.935 193.519 294.79 194.3 294.79H276.173C276.526 294.79 276.853 294.604 277.033 294.3L372.106 133.865C372.501 133.198 372.02 132.355 371.245 132.355H292.344C291.995 132.355 291.672 132.536 291.49 132.833Z"
      fill="current"
    />
  </svg>